<?xml version="1.0" encoding="UTF-8" standalone="no"?>
<svg
   width="2718.6785"
   height="510.71524"
   viewBox="-0.013 -0.001 326.29579 61.296044"
   version="1.1"
   id="svg67"
   sodipodi:docname="minecraft_cp.svg"
   inkscape:version="1.2.2 (b0a8486541, 2022-12-01)"
   inkscape:export-filename="G:\その他のパソコン\o-hara_desktop1\workspace\MySite\src\main\resources\static\img\minecraft_cp.png"
   inkscape:export-xdpi="96"
   inkscape:export-ydpi="96"
   xmlns:inkscape="http://www.inkscape.org/namespaces/inkscape"
   xmlns:sodipodi="http://sodipodi.sourceforge.net/DTD/sodipodi-0.dtd"
   xmlns="http://www.w3.org/2000/svg"
   xmlns:svg="http://www.w3.org/2000/svg">
  <defs
     id="defs71" />
  <sodipodi:namedview
     id="namedview69"
     pagecolor="#ffffff"
     bordercolor="#666666"
     borderopacity="1.0"
     inkscape:pageshadow="2"
     inkscape:pageopacity="0.0"
     inkscape:pagecheckerboard="0"
     showgrid="false"
     inkscape:zoom="0.3414"
     inkscape:cx="1561.2185"
     inkscape:cy="45.401289"
     inkscape:window-width="1666"
     inkscape:window-height="1020"
     inkscape:window-x="2905"
     inkscape:window-y="130"
     inkscape:window-maximized="0"
     inkscape:current-layer="text1032"
     width="2917.4397px"
     scale-x="0.12002"
     units="px"
     fit-margin-bottom="-1.1"
     lock-margins="false"
     fit-margin-top="-1.1"
     fit-margin-left="-1.1"
     fit-margin-right="-1.1"
     inkscape:showpageshadow="2"
     inkscape:deskcolor="#d1d1d1" />
  <path
     d="m 299.64498,36.797978 -0.922,-3.17 -0.865,-2.898 c 0,0 -2.734,-8.913997 -3.092,-10.087997 a 513.637,513.637 0 0 1 -1.299,-4.312 l -0.068,-0.243 6.061,-7.2820002 -2.85,-8.9380028 -30.532,0.029 -0.933,1.4849999 -0.364,-1.4829999 -30.739,0.032 -0.754,1.6869999 -0.297,-1.6889999 -30.98,0.035 -0.545,2.0239999 -0.207,-2.0239999 -31.297,0.03 -0.3,3.3100028 -0.097,-3.3100028 -31.456,0.033 -0.104,3.0260028 -0.326,-3.0300028 -31.18801,0.034 -0.209,1.9509999 -0.558,-1.9489999 -15.038995,0.013 -1.2,8.3890028 -0.685,-1.731 -0.331,-0.029 -2.629,-6.6240028 -14.848,0.014 -0.301,1.6089999 -0.782,-1.6079999 -14.702,0.014 -0.334,1.5019999 -0.866,-1.5019999 -14.575997,0.016 -1.696,6.5320028 -3.949,0.004 -0.757,2.854 -6.866,-9.3780028 -14.185,0.015 -12.123,37.656 12.888,11.915 h 14.042 l 2.23,-8.393 1.089,1.211 h 3.757 l 6.255,7.179 14.428997,-0.004 0.285,-1.358 1.021,1.36 14.541,-0.002 0.26,-1.469 0.929,1.469 14.679,-0.002 1.134,-7.871 3.787,7.871 14.874995,-0.003 0.187,-1.801 0.648,1.801 30.94201,-0.003 0.11,-2.862 0.341,2.863 31.19,-0.005 0.301,-3.128 0.105,3.128 15.301,-0.003 0.479,-2.198 0.145,2.198 15.115,-0.003 0.641,-1.888 0.188,1.888 h 14.951 l 0.77,-1.681 0.223,1.681 h 14.809 l 0.889,-1.534 0.25,1.533 14.68,-0.006 8.486,-12.098 -0.406,-1.938 4.703,-0.003 6.64,-9.197 5.716,23.234 14.409,-0.002 12.026,-11.979 z m -145.759,-9.195 0.156,-5.140997 14.73,-0.009 0.129,-1.708 0.232,6.852997 z"
     fill="#020303"
     id="path41" />
  <path
     fill="#a9a09d"
     d="m 26.810978,8.6739808 -1.96,6.8360002 h 8.698 l 1.827,-6.7510002 3.976,-0.003 1.692997,-6.5470029 11.463,-0.012 -8.08,34.7360001 -12.357997,0.004 3.703,-14.749997 -4.461,-0.005 -1.93,7.184997 -8.005,0.003 1.996,-7.191997 -4.521,0.012 -4.359,14.751997 -12.131,0.007 11.137,-34.7130001 11.251,-0.011 -1.866,6.3040029 z m 41.503997,-6.4070029 -6.83,34.7460001 -12.361,0.005 7.729,-34.7410001 z m 16.717,23.4780001 1.024,-7.182998 -4.477,-0.084 -2.96,18.444998 -12.377,0.002 6.484,-34.7470001 11.474,-0.011 -1.005,6.4330029 3.928,0.1 -0.931,6.7200002 4.417,0.062 1.885,-13.3250031 11.481995,-0.01 -4.022995,34.7680001 -12.39,0.005 1.551,-11.074 z m 49.489005,4.001 -0.313,7.158 -29.52101,0.009 3.675,-34.7700001 27.36701,-0.028 -0.271,6.1560029 -16.099,0.015 -0.507,7.0930002 16.295,0.044 -0.294,6.72 -16.602,0.011 -0.558,7.527997 z m 160.55,-27.7870001 1.965,6.1720029 -7.992,0.006 0.051,0.191 c 0.33,1.35 0.688,2.7230002 1.071,4.1249992 0.388,1.407001 0.796,2.837001 1.218,4.286001 0.428,1.453999 0.863,2.928999 1.315,4.404 0.452,1.483997 0.911,2.978997 1.368,4.471997 0.277,0.907 0.555,1.821 0.836,2.748 0.287,0.928 0.574,1.862 0.855,2.802 0.287,0.943 0.568,1.891 0.85,2.838 0.279,0.949 0.559,1.898 0.824,2.847 l -12.473,0.004 -7.841,-28.7039972 -7.998,0.007 -1.576,-6.1710029 z m -28.717,13.2000031 1.702,6.904 -16.689,0.009 3.091,14.791997 -12.451,0.003 -6.375,-34.8500001 27.496,-0.027 1.515,6.1700029 -16.185,0.014 1.461,6.9780002 z m -47.843,10.471997 1.537,11.245 -12.439,0.003 -3.85,-34.8300001 27.463,-0.027 6.024,34.8510001 -12.442,0.003 -1.621,-11.229 z m 8.064,-13.678998 -0.699,-4.4239992 -5.438,0.006 0.5,4.0539992 -4.268,-0.034 -0.55,-4.0169992 -5.261,0.007 0.554,4.4199992 4.829,-0.002 0.223,1.626001 -2.428,0.002 0.887,6.814 2.914,-0.003 -0.219,-2.317001 4.32,-0.017 0.361,2.330001 2.953,-0.002 -1.035,-6.782 -2.408,-0.014 -0.209,-1.646001 4.974,-10e-4 m -29.637,6.893 4.105,-0.003 1.816,18.036998 -12.424,0.007 -1.109,-14.683997 -4.6,-0.113 0.955,14.796997 -12.424,0.007 -1.334,-34.8120001 27.432,-0.026 1.3,12.9170031 -4.095,-0.004 z m -8.103,-3.455999 -0.539,-7.1620002 -4.465,10e-4 0.461,7.1630002 4.543,-0.002 m -37.048,-7.1320002 15.914,-0.013 -0.177,-6.1600029 -27.402,0.029 -1.171,34.7880001 29.563,-0.008 -0.205,-7.153 -16.903,0.006 z"
     id="path43" />
  <path
     d="m 3.982978,36.946978 c -0.891,0 -1.095,0.505 -0.451,1.122 l 8.792,8.427 c 0.642,0.615 1.899,1.122 2.791,1.122 h 7.74 c 0.892,0 1.122,-0.534 0.515,-1.188 l -7.77,-8.304 c -0.607,-0.65 -1.836,-1.184 -2.728,-1.184 z m 29.709,-0.009 c -0.892,0 -1.155,0.561 -0.582,1.243 l 6.865,8.191 c 0.572,0.686 1.769997,1.244 2.661997,1.244 h 8.116 c 0.892,0 1.186,-0.585 0.654,-1.302 l -6.011,-8.079 c -0.533,-0.717 -1.698,-1.303 -2.59,-1.302 z"
     fill="#282729"
     id="path45" />
  <path
     d="m 22.996978,29.368978 c -0.891,0 -1.138,0.545 -0.546,1.215 l 7.639,8.623 c 0.592,0.668 1.671,1.186 2.401,1.149 0.727,-0.033 0.904,-0.659 0.391,-1.39 l -0.532,-0.754 c -0.514,-0.729 -0.74,-2.029 -0.501,-2.89 l 0.148,-0.538 c 0.24,-0.858 -0.02,-2.135 -0.573,-2.834 l -1.038,-1.311 c -0.553,-0.7 -1.735,-1.271 -2.626,-1.271 h -4.763 z m 27.747997,7.649 c -0.893,10e-4 -1.188,0.591 -0.66,1.309 l 5.872,7.983 c 0.525,0.72 1.688,1.308 2.581,1.308 h 7.994 c 0.891,0 1.233,-0.617 0.757,-1.373 l -4.943,-7.857 c -0.475,-0.756 -1.592,-1.374 -2.484,-1.372 z m 17.118,-0.093 c -0.891,0 -1.241,0.623 -0.775,1.384 l 4.764,7.799 c 0.466,0.761 1.573,1.384 2.466,1.384 h 7.866 c 0.893,0 1.302,-0.655 0.907,-1.456 l -3.755,-7.658 c -0.394,-0.801 -1.444,-1.455 -2.336,-1.455 z m 21.322,-0.006 c -0.891,0 -1.314,0.662 -0.939,1.471 l 3.586,7.755 c 0.376,0.811 1.411,1.472 2.303,1.472 h 8.119995 c 0.892,0 1.371,-0.686 1.062,-1.522 l -2.807,-7.659 c -0.308,-0.837 -1.286995,-1.521 -2.179995,-1.521 z m 17.122995,-0.005 c -0.891,0 -1.375,0.688 -1.075,1.524 l 2.646,7.397 c 0.299,0.842 1.275,1.528 2.167,1.528 h 24.02001 c 0.893,0 1.52,-0.725 1.395,-1.605 l -1.026,-7.251 c -0.124,-0.884 -0.958,-1.604 -1.847,-1.604 z m 34.26401,-0.013 c -0.891,0 -1.543,0.725 -1.447,1.612 l 0.808,7.491 c 0.096,0.888 0.903,1.612 1.795,1.612 h 23.896 c 0.893,0 1.708,-0.726 1.812,-1.61 l 0.887,-7.503 c 0.105,-0.887 -0.541,-1.611 -1.432,-1.61 z m 34.308,-0.01 c -0.892,0 -1.713,0.726 -1.826,1.61 l -0.935,7.381 c -0.112,0.886 0.524,1.609 1.417,1.609 h 7.997 c 0.892,0 1.792,-0.71 1.997,-1.577 l 1.775,-7.451 c 0.203,-0.868 -0.354,-1.577 -1.246,-1.576 z m 17.176,-0.006 c -0.892,0 -1.789,0.711 -1.996,1.579 l -1.737,7.324 c -0.206,0.868 0.354,1.578 1.247,1.578 h 7.996 c 0.893,0 1.863,-0.688 2.158,-1.53 l 2.603,-7.426 c 0.292,-0.841 -0.194,-1.53 -1.086,-1.529 z m 17.173,-0.007 c -0.895,0 -1.867,0.688 -2.164,1.529 l -2.668,7.557 c -0.297,0.84 0.189,1.528 1.08,1.528 h 7.988 c 0.893,0 1.932,-0.662 2.311,-1.472 l 3.586,-7.677 c 0.377,-0.809 -0.043,-1.47 -0.934,-1.47 z m 17.196,-0.005 c -0.893,10e-4 -1.941,0.656 -2.332,1.458 l -3.75,7.702 c -0.39,0.803 0.021,1.458 0.912,1.458 h 8.244 c 0.893,0 1.986,-0.631 2.432,-1.403 l 4.504,-7.812 c 0.447,-0.771 0.082,-1.403 -0.812,-1.403 z m 17.205,-0.007 c -0.891,0 -2.002,0.624 -2.465,1.386 l -4.781,7.854 c -0.465,0.762 -0.115,1.386 0.775,1.386 h 8.117 c 0.893,0 2.046,-0.595 2.562,-1.321 l 5.682,-7.985 c 0.516,-0.727 0.211,-1.321 -0.684,-1.321 z m 42.952,-0.013 c -0.892,0 -2.104,0.546 -2.694,1.216 l -7.135,8.08 c -0.591,0.67 -0.344,1.216 0.549,1.216 h 7.736 c 0.895,0 2.145,-0.511 2.784,-1.131 l 8.454,-8.254 c 0.637,-0.622 0.43,-1.131 -0.463,-1.13 z"
     fill="#282729"
     id="path47" />
  <path
     d="m 11.451978,8.0119808 c -0.083,0.226 0.578,0.413 1.469,0.415 l 8.501,0.035 c 0.892,0.004 1.63,-0.189 1.644,-0.426 0.012,-0.239 -0.708,-0.435 -1.6,-0.435 h -8.242 c -0.893,0 -1.69,0.185 -1.772,0.411 m -0.59,17.6659972 c 0.277,-0.847 -0.224,-1.541 -1.115,-1.541 h -2.077 c -0.892,0 -1.62,0.171 -1.62,0.378 0,0.208 0.729,0.38 1.62,0.38 h 1.028 c 0.891,0 1.394,0.692 1.115,1.54 l -1.89,5.753 c -0.277,0.85 0.225,1.542 1.117,1.542 h 6.369 c 0.893,0 1.622,-0.171 1.622,-0.379 0,-0.208 -0.729,-0.378 -1.622,-0.378 h -5.322 c -0.893,0 -1.395,-0.694 -1.115,-1.542 l 0.151,-0.453 c 0.278,-0.848 1.236,-1.541 2.127,-1.541 h 4.916 c 0.893,0 1.623,-0.17 1.623,-0.377 0,-0.21 -0.73,-0.379 -1.623,-0.379 h -4.668 c -0.891,0 -1.393,-0.691 -1.115,-1.541 z M 44.761975,9.5009808 c 0.121,-0.882 -0.512,-1.606 -1.402,-1.606 l -2.464,0.003 c -0.891997,0.001 -1.684997,0.172 -1.764997,0.379 -0.08,0.204 0.587,0.375 1.479,0.375 h 1.884997 c 0.892,0 1.524,0.723 1.403,1.6060002 l -0.346,2.551999 c -0.12,0.884001 -0.948,1.606001 -1.838,1.606001 h -7.788997 c -0.892,0 -1.621,0.171 -1.621,0.378 0,0.208 0.729,0.379 1.621,0.379 h 15.310997 c 0.892,0 1.621,-0.171 1.621,-0.379 0,-0.207 -0.729,-0.378 -1.621,-0.378 h -3.519 c -0.891,0 -1.525,-0.723 -1.403,-1.606001 z m 10.698,23.1869972 c 0.16,-0.878 0.057,-1.221 -0.229,-0.765 -0.287,0.454 -0.655,1.544 -0.82,2.423 l -0.241,1.286 c -0.165,0.875 0.11,2.197 0.611,2.937 l 0.408,0.6 c 0.502,0.738 1.302,1.63 1.779,1.984 0.476,0.354 0.461,0.037 -0.035,-0.704 l -1.368,-2.046 c -0.496,-0.742 -0.771,-2.065 -0.61,-2.943 z m 12.187,-23.4459972 c 0,-0.208 -0.728,-0.365 -1.619,-0.348 l -3.196,0.063 c -0.892,0.019 -1.252,0.174 -0.801,0.347 0.451,0.174 1.55,0.317 2.441,0.317 h 1.555 c 0.892,0 1.62,-0.171 1.62,-0.379 m 4.698,25.2839972 c 0.195,-0.871 0.097,-1.198 -0.214,-0.729 -0.309,0.472 -0.681,1.365 -0.827,1.985 -0.146,0.622 -0.029,1.751 0.261,2.508 0.289,0.759 0.789,1.719 1.11,2.133 0.323,0.413 0.358,0.061 0.077,-0.787 l -0.412,-1.236 c -0.281,-0.848 -0.354,-2.254 -0.162,-3.123 z m -3.056,-8.791 c -0.892,-0.045 -1.629,0.087 -1.642,0.296 -0.009,0.208 0.712,0.414 1.603,0.46 l 9.063,0.459 c 0.889,0.044 1.851,0.442 2.135,0.884 0.284,0.438 0.659,0.708 0.833,0.596 0.176,-0.112 0.041,-0.641 -0.302,-1.171 -0.341,-0.53 -1.353,-1.002 -2.239,-1.047 z m 9.594,-17.6989972 c 0.346,0.241 1.359,0.438 2.251,0.438 h 0.689 c 0.891,0 1.622,-0.17 1.622,-0.38 0,-0.206 -0.73,-0.395 -1.622,-0.415 l -1.951,-0.042 c -0.891,-0.022 -1.336,0.159 -0.989,0.399 m 10.82,17.9269972 c -0.89,0.038 -1.614,0.24 -1.605,0.447 0.008,0.208 0.745,0.347 1.634,0.309 l 5.265,-0.223 c 0.891,-0.038 1.511,0.652 1.377,1.535 l -1.101,7.279 c -0.136,0.88 -0.035,2.301 0.224,3.155 l 0.229,0.763 c 0.259,0.854 0.772,1.982 1.146,2.508 0.374,0.525 0.468,0.257 0.213,-0.598 l -0.814,-2.727 c -0.254,-0.855 -0.354,-2.276 -0.222,-3.156 l 1.21,-8.021 c 0.133,-0.882 -0.486,-1.573 -1.378,-1.534 z m 1.804,-18.1099972 c -0.036,0.205 0.654,0.495 1.535,0.644 l 8.972995,1.054 c 0.884,0.11 1.608,0.028 1.608,-0.18 0,-0.21 -0.724,-0.472 -1.608,-0.582 l -8.844995,-1.038 c -0.881,-0.15 -1.63,-0.103 -1.663,0.102 M 111.03197,30.680978 a 1.558,1.558 0 0 0 -1.565,-1.619 h -3.209 c -0.891,0 -1.622,0.172 -1.622,0.378 0,0.208 0.731,0.38 1.622,0.38 h 2.424 a 1.56,1.56 0 0 1 1.565,1.619 l -0.13,3.744 c -0.031,0.892 0.125,2.326 0.346,3.189 l 0.599,2.341 c 0.223,0.864 0.637,1.993 0.926,2.508 0.286,0.518 0.361,0.227 0.163,-0.643 l -0.97,-4.277 c -0.196,-0.869 -0.333,-2.31 -0.303,-3.201 z m -4.502,-18.407998 c 0,0.208 0.73,0.38 1.622,0.38 h 3.066 c 0.891,0 1.99001,-0.2 2.44101,-0.441 0.452,-0.244 0.09,-0.431 -0.801,-0.418 l -4.70701,0.076 c -0.891,0.013 -1.621,0.195 -1.621,0.403 m 20.86601,3.891001 c -0.021,-0.893 -0.21,-1.622 -0.422,-1.622 -0.205,0 -0.376,0.729 -0.376,1.622 v 3.699999 c 0,0.892001 0.197,1.193001 0.441,0.675001 0.242,-0.522001 0.422,-1.676001 0.401,-2.569001 z m 3.691,13.799997 a 1.695,1.695 0 0 1 -1.679,1.619 h -2.453 c -0.891,0 -1.622,0.73 -1.622,1.623 v 2.438 c 0,0.893 0.169,1.621 0.38,1.621 0.209,0 0.379,-0.729 0.379,-1.621 v -1.681 c 0,-0.891 0.729,-1.619 1.623,-1.619 h 2.428 c 0.891,0 1.645,-0.729 1.675,-1.622 l 0.026,-0.785 c 0.031,-0.892 -0.115,-1.626 -0.323,-1.635 -0.208,-0.007 -0.405,0.716 -0.435,1.606 z m 31.047,1.688 c -0.174,0.332 -0.238,1.329 -0.144,2.216 l 0.161,1.528 c 0.093,0.887 0.068,2.335 -0.053,3.218 l -1.067,7.726 c -0.121,0.882 -0.013,1.594 0.241,1.583 0.257,-0.012 0.556,-0.746 0.666,-1.631 l 0.949,-7.663 c 0.109,-0.886 0.121,-2.336 0.025,-3.222 l -0.291,-2.746 c -0.095,-0.886 -0.314,-1.341 -0.487,-1.009 m -22.787,11.925 c 0,0.208 0.729,0.379 1.621,0.379 h 0.42 c 0.891,0 1.62,-0.17 1.62,-0.379 0,-0.207 -0.729,-0.378 -1.62,-0.378 h -0.42 c -0.892,0 -1.621,0.171 -1.621,0.378 m 2.905,-30.295998 c 0.417,0.208 1.468,0.540001 2.338,0.736001 l 6.247,1.115 c 0.82,0.354 1.557,0.487 1.639,0.295 0.084,-0.19 -0.541,-0.577 -1.387,-0.857 l -8.002,-1.364001 c -0.876,-0.168 -1.252,-0.133 -0.835,0.075 m -0.129,7.006001 c 0.347,-0.244001 -0.098,-0.416001 -0.989,-0.383001 l -0.292,0.01 c -0.894,0.032 -1.621,0.229001 -1.621,0.437001 0,0.208 0.511,0.378 1.134,0.378 0.626,0 1.42,-0.199 1.768,-0.442 m 35.29,-6.628 c 0.053,0.486 0.826,0.884 1.721,0.884 h 0.707 c 0.891,0 1.732,0.039 1.863,0.084 0.137,0.047 0.639,0.404 0.816,0.297 0.178,-0.106 0.047,-0.404 -0.289,-0.66 -0.336,-0.256 -1.379,-0.471 -2.27,-0.474 h -0.15 c -0.893,-10e-4 -1.703,-0.729001 -1.803,-1.613001 l -0.994,-8.9379992 c -0.101,-0.8890029 -0.352,-1.5940029 -0.557,-1.5690029 -0.205,0.023 -0.297,0.767 -0.197,1.6530029 l 0.789,7.0860002 c 0.1,0.886 -0.554,1.609999 -1.443,1.609999 h -2.573 c -0.892,0 -1.62,0.17 -1.62,0.376 0,0.208 0.729,0.378 1.62,0.378 h 2.657 c 0.893,0 1.666,0.399 1.723,0.886001 m -1.085,17.785997 c 0.06,0.889 -0.253,2.249 -0.698,3.022 l -0.678,0.763 c -0.207,0.868 -0.211,1.612 -0.008,1.656 0.205,0.043 0.595,-0.615 0.865,-1.465 0,0 0.104,-0.37 0.433,-0.837 0.325,-0.47 0.688,-0.854 0.798,-0.854 0.111,0 0.155,-0.729 0.094,-1.617 l -0.281,-4.087 a 1.494,1.494 0 0 1 1.51,-1.616 h 6.074 c 0.892,0 1.619,-0.171 1.619,-0.379 0,-0.207 -0.729,-0.38 -1.619,-0.38 h -6.885 c -0.891,0 -1.574,0.729 -1.512,1.618 z m 12.755,-3.141 c 0,0.208 0.729,0.379 1.621,0.379 h 4.078 c 0.893,0 1.934,-0.171 2.316,-0.379 0.387,-0.209 -0.031,-0.381 -0.922,-0.381 l -5.474,0.002 c -0.889,0 -1.619,0.171 -1.619,0.379 m 3.502,-10.689998 c 0.227,0.187 1.141,0.341 2.031,0.341 h 1.178 c 0.893,0 1.621,-0.171 1.621,-0.378 0,-0.21 -0.729,-0.37 -1.621,-0.357 l -1.996,0.029 c -0.895,0.013 -1.438,0.177 -1.213,0.365 m -20.795,26.593998 c -0.018,0.207 0.699,0.43 1.588,0.493 l 9.014,0.649 c 0.887,0.065 1.627,-0.053 1.645,-0.261 0.014,-0.207 -0.701,-0.428 -1.592,-0.493 l -9.008,-0.647 c -0.889,-0.064 -1.631,0.052 -1.647,0.259 m 52.616,-16.175 c -0.892,0.011 -1.619,0.188 -1.618,0.396 0.001,0.208 0.732,0.371 1.623,0.363 l 11.021,1.224 c 0.887,0.086 1.674,-0.003 1.744,-0.198 0.074,-0.193 -0.594,-0.428 -1.479,-0.518 z m 34.36,-13.995997 c -0.195,0.069 -0.316,0.854 -0.274,1.746 l 1.007,5.078 c -0.382,0.806 -0.543,1.541 -0.355,1.635 0.188,0.093 0.658,-0.488 1.045,-1.291 l -0.983,-5.675 c -0.047,-0.891 -0.242,-1.562 -0.44,-1.493 m -5.849,-9.4660002 c -0.798,0 -1.656,-0.68 -1.912,-1.507 -0.254,-0.8300029 -0.623,-1.4580029 -0.824,-1.3960029 -0.197,0.061 -0.146,0.809 0.115,1.6610029 l 0.139,0.451 c 0.26,0.853 1.129,1.55 1.932,1.55 0.801,0 1.695,0.688 1.982,1.534 l 0.377,1.092 c 0.289,0.844 0.688,1.479 0.881,1.411 0.197,-0.066 0.121,-0.812 -0.168,-1.655 l -0.551,-1.607 c -0.288,-0.843 -1.176,-1.534 -1.971,-1.534 m 29.939,21.9649972 c -0.891,0 -1.619,0.17 -1.619,0.379 0,0.21 0.729,0.381 1.619,0.381 h 10.392 c 0.894,0 1.621,-0.171 1.621,-0.381 0,-0.209 -0.729,-0.379 -1.621,-0.379 z m 7.846,-17.7989972 c 0.199,-0.055 0.176,-0.804 -0.062,-1.663 l -1.041,-3.815 c -0.231,-0.8610029 -0.59,-1.5200029 -0.793,-1.4640029 -0.197,0.054 -0.172,0.8030029 0.063,1.6630029 l 1.041,3.813 c 0.237,0.86 0.593,1.52 0.792,1.466"
     fill="#020303"
     id="path49" />
  <path
     d="m 38.803978,8.5149808 h 3.395997 c 0.891,0 0.904,-0.142 0.029,-0.311 l -1.171,-0.23 c -0.875997,-0.171 -1.545997,-0.013 -1.493997,0.354 z m -18.999,33.6079972 c -0.345,-0.382 -1.354,-0.606 -2.237,-0.499 l -1.959,0.242 c -0.885,0.107 -0.885,0.281 10e-4,0.387 l 3.215,0.378 c 0.887,0.103 1.328,-0.125 0.98,-0.508 m 32.125997,4.168 c -0.241,-0.382 -1.167,-0.634 -2.057,-0.557 l -4.215,0.356 c -0.889,0.074 -0.889,0.203 -0.002,0.284 l 5.103,0.462 c 0.888,0.081 1.417,-0.164 1.171,-0.545 m 38.883,-1.578 c -0.104,-0.346 0.538,-0.609 1.431,-0.584 l 1.05,0.032 c 0.891,0.023 0.921,0.25 0.063,0.499 l -0.801,0.23 c -0.855,0.249 -1.64,0.169 -1.743,-0.177 m 44.493005,-2.461 c -0.068,-0.521 -0.845,-0.845 -1.728,-0.719 l -2.98,0.425 c -0.879,0.126 -0.879,0.342 -0.001,0.481 l 3.231,0.508 c 0.882,0.139 1.546,-0.174 1.478,-0.695 m 3.722,1.803 c -0.045,-0.52 0.646,-0.86 1.53,-0.76 l 0.093,0.011 c 0.888,0.102 0.956,0.5 0.151,0.887 l -0.229,0.109 c -0.805,0.384 -1.5,0.273 -1.545,-0.247 m -28.14501,-8.683 c -0.105,-0.764 -0.304,-0.821 -0.443,-0.126 -0.139,0.694 -0.044,1.961 0.212,2.814 l 0.204,0.68 c 0.257,0.854 0.417,0.824 0.354,-0.063 l -0.021,-0.299 a 58.98,58.98 0 0 0 -0.306,-3.006 m 14.76701,0.567 c -0.174,-0.312 -0.291,0.16 -0.259,1.051 l 0.013,0.423 c 0.032,0.891 0.17,1.052 0.312,0.358 0.137,-0.695 0.109,-1.519 -0.066,-1.832 m -29.915005,-0.316 c -0.036,-0.765 -0.176,-0.765 -0.313,0 -0.139,0.765 -0.022,2.082 0.257,2.928 l 0.236,0.709 c 0.281,0.846 0.393,0.817 0.246,-0.061 l -0.096,-0.586 a 30.008,30.008 0 0 1 -0.33,-2.99 m -24.05,0.569 c -0.139,-0.313 -0.369,-0.256 -0.504,0.126 -0.139,0.382 0.005,1.09 0.317,1.576 0.312,0.485 0.542,0.431 0.505,-0.126 -0.036,-0.554 -0.178,-1.263 -0.318,-1.576 m -16.789,-0.535 c -0.172,-0.766 -0.484,-0.681 -0.692,0.187 v 0.003 c -0.209,0.866 0.133,2.088 0.756,2.713 0.624,0.626 0.935,0.541 0.694,-0.188 a 34.296,34.296 0 0 1 -0.758,-2.715 m -30.229997,-1.105 c -0.243,-0.312 0.286,-0.504 1.175,-0.427 l 2.571,0.223 c 0.889,0.077 0.891,0.232 0.008,0.347 l -1.704,0.22 c -0.883,0.113 -1.806,-0.05 -2.05,-0.363 m 137.680002,0.53 c 0.127,-0.882 0.379,-0.892 0.57,-0.021 l 0.076,0.365 c 0.188,0.872 0.154,2.291 -0.074,3.153 l -0.309,1.158 c -0.229,0.859 -0.436,0.836 -0.461,-0.056 l -0.032,-1.048 c -0.026,-0.892 0.056,-2.343 0.183,-3.227 z m -10.124,-19.464997 c 0,0.382 -0.604,0.281 -1.342,-0.217 l -0.476,-0.323 c -0.738,-0.502 -0.633,-0.742 0.235,-0.534 l 0.004,0.001 c 0.87,0.21 1.579,0.69 1.579,1.073 m 49.295,25.685997 c 0.103,-0.347 -0.541,-0.609 -1.434,-0.585 l -1.175,0.034 c -0.89,0.026 -0.916,0.243 -0.06,0.486 l 0.918,0.257 c 0.861,0.24 1.647,0.153 1.751,-0.192 m -6.314,-5.363 c -0.244,-0.521 -0.416,-0.217 -0.382,0.675 l 0.006,0.166 c 0.035,0.89 0.231,1.278 0.438,0.862 0.211,-0.417 0.183,-1.182 -0.062,-1.703 m 22.41,6.942 c 0.139,-0.382 -0.477,-0.635 -1.363,-0.564 l -3.08,0.247 c -0.89,0.07 -0.896,0.237 -0.014,0.372 l 2.602,0.396 c 0.879,0.134 1.714,-0.069 1.855,-0.451 m -3.156,-6.753 c -0.141,-0.418 -0.338,-0.446 -0.441,-0.064 -0.104,0.383 -0.074,1.235 0.062,1.896 0.139,0.659 0.338,0.688 0.439,0.062 0.106,-0.625 0.079,-1.477 -0.06,-1.894 m 44.748,-13.444 c -0.312,-0.104 -0.283,-0.842997 0.064,-1.640997 0.346,-0.799 0.602,-0.725 0.566,0.167 l -0.002,0.044 c -0.032,0.891 -0.316,1.535997 -0.628,1.429997 m -21.208,19.313 c 0.313,-0.381 1.29,-0.586 2.171,-0.454 l 4.367,0.655 c 0.883,0.132 0.876,0.262 -0.014,0.286 l -5.471,0.16 c -0.891,0.028 -1.363,-0.265 -1.053,-0.647 m 41.403,0 c 0.383,-0.521 1.412,-0.81 2.289,-0.639 l 4.013,0.774 c 0.874,0.169 0.862,0.348 -0.028,0.402 l -5.347,0.313 c -0.894,0.056 -1.308,-0.328 -0.927,-0.85 m 1.645,-15.148 c -0.174,-0.59 0.403,-0.965 1.285,-0.834 l 3.609,0.533 c 0.881,0.131 0.885,0.37 0.007,0.531 l -2.989,0.549 c -0.877,0.161 -1.736,-0.189 -1.912,-0.779 m -4.233,-17.5449972 c -0.276,-0.244 -0.532,-1.172 -0.562,-2.062 l -0.007,-0.169 c -0.03,-0.891 0.128,-0.913 0.356,-0.052 l 0.305,1.157 c 0.227,0.862 0.186,1.37 -0.092,1.126 m -40.138,21.1449972 -2.281,-0.914 c -0.828,-0.331 -0.781,-0.534 0.107,-0.451 l 2.424,0.227 m -86.91,8.456 c 0.171,-0.484 0.171,-1.251 0,-1.704 -0.172,-0.45 -1.044,-0.817 -1.935,-0.817 h -0.927 c -0.892,0 -1.876,0.425 -2.188,0.947 -0.313,0.521 0.134,1.147 0.992,1.391 l 2.187,0.624 c 0.858,0.243 1.699,0.044 1.871,-0.441"
     fill="#020303"
     id="path51" />
  <path
     d="m 148.49998,36.505978 c -0.593,-0.623 -0.563,-1.136 0.063,-1.136 0.625,0 1.392,0.313 1.704,0.695 0.311,0.383 0.18,1.314 -0.293,2.07 l -0.175,0.281 c -0.475,0.754 -0.717,0.891 -0.545,0.3 0.178,-0.592 -0.164,-1.584 -0.754,-2.21 M 91.378975,8.1049808 c 0.07,-0.485 0.833,-0.707 1.697,-0.489 l 0.389,0.097 c 0.866,0.218 0.862,0.56 -0.006,0.763 l -0.627,0.146 c -0.868,0.203 -1.523,-0.029 -1.453,-0.517 m -40.836,6.8790002 c -0.175,0.312 -1.023,0.396 -1.892,0.188 l -0.509,-0.123 c -0.865,-0.208 -0.849,-0.422 0.044,-0.476 l 1.051,-0.062 c 0.891,-0.052 1.48,0.16 1.306,0.473 M 17.658978,28.932978 c 0.141,-0.418 -0.464,-0.619 -1.338,-0.447 l -1.357,0.264 c -0.875,0.171 -0.871,0.424 0.009,0.561 l 0.832,0.131 c 0.879,0.137 1.715,-0.091 1.854,-0.509"
     fill="#020303"
     id="path53" />
  <path
     d="m 20.183978,42.251978 c -0.277,-0.312 -0.3,-1.27 -0.047,-2.123 l 0.348,-1.183 c 0.251,-0.856 0.421,-0.827 0.38,0.063 l -0.102,2.189 c -0.041,0.894 -0.301,1.364 -0.579,1.054 m 31.558997,4.164 c -0.278,-0.174 -0.278,-0.939 0,-1.704 0.278,-0.764 0.505,-0.658 0.505,0.234 v 0.164 c 0,0.892 -0.227,1.48 -0.505,1.306 m 28.466,-18.996 c -0.034,-0.556 0.203,-0.333 0.53,0.499 l 0.2,0.516 c 0.328,0.83 0.311,1.168 -0.037,0.752 -0.347,-0.417 -0.659,-1.212 -0.693,-1.767 m 158.171005,15.084 c 0.311,-0.244 0.366,-1.144 0.121,-2.001 l -0.373,-1.302 c -0.244,-0.857 -0.428,-0.829 -0.404,0.062 l 0.051,2.062 c 0.019,0.891 0.292,1.422 0.605,1.179 m 41.656,-0.254 c 0.451,-0.244 0.516,-1.105 0.141,-1.913 l -1.672,-3.62 c -0.373,-0.812 -0.545,-0.758 -0.382,0.121 l 0.796,4.26 c 0.163,0.878 0.666,1.396 1.117,1.152 m 1.766,-15.462 c -0.174,-0.348 -0.638,0.023 -1.031,0.823 l -1.725,3.527 c -0.395,0.801 -0.285,0.867 0.242,0.149 l 1.873,-2.562 c 0.527,-0.717 0.816,-1.588 0.641,-1.937"
     fill="#282729"
     id="path55" />
  <path
     d="m 254.72298,9.4939808 0.07,-2.038 c 0.029,-0.893 0.238,-0.915 0.463,-0.053 l 0.602,2.343"
     fill="#020303"
     id="path57" />
  <path
     d="m 14.189978,43.133978 c -0.798,-0.243 -0.741,-0.385 0.126,-0.313 a 49.44,49.44 0 0 1 2.839,0.314 c 0.693,0.104 0.637,0.247 -0.126,0.314 -0.764,0.07 -2.041,-0.072 -2.839,-0.315 m 39.960997,-4.47 c -0.629,-0.63 -0.721,-0.553 -0.204,0.172 l 0.64,0.896 c 0.518,0.726 1.341,1.574 1.828,1.888 0.485,0.312 0.458,0.058 -0.062,-0.568 a 41.993,41.993 0 0 0 -2.095,-2.282 z m 16.274,-1.777 c -0.21,0 -0.095,0.595 0.252,1.326 0.347,0.729 0.517,0.729 0.379,0 -0.139,-0.732 -0.423,-1.326 -0.631,-1.326 m 23.231,8.079 c -0.695,-0.07 -0.544,-0.256 0.333,-0.418 l 0.969,-0.175 c 0.877,-0.16 1.227,-0.062 0.775,0.216 -0.447,0.277 -1.384,0.446 -2.077,0.377 m 16.216995,-6.754 c -0.313,-0.451 -0.427,-0.168 -0.254,0.63 0.174,0.798 0.629,2.021 1.011,2.714 0.379,0.696 0.528,0.553 0.326,-0.314 l -0.146,-0.628 c -0.204,-0.871 -0.624,-1.952 -0.937,-2.402 m 53.65101,1.387 c -0.105,-0.521 -0.363,-0.436 -0.569,0.188 -0.208,0.625 -0.379,1.816 -0.379,2.652 0,0.832 0.231,0.822 0.515,-0.022 l 0.11,-0.333 c 0.28,-0.845 0.427,-1.964 0.323,-2.485 m -17.877,-3.476 c -0.176,-0.532 -0.579,-0.441 -0.896,0.201 -0.317,0.642 0.083,1.486 0.883,1.877 l 0.04,0.017 c 0.798,0.389 1.195,0.295 0.875,-0.211 -0.317,-0.503 -0.726,-1.351 -0.902,-1.884 m 29.992,9.094 c -0.797,-0.207 -0.721,-0.378 0.17,-0.378 h 0.293 c 0.891,0 2.273,0.227 3.074,0.505 0.797,0.278 0.725,0.454 -0.168,0.39 l -0.297,-0.021 c -0.889,-0.065 -2.271,-0.287 -3.072,-0.496 m 20.262,-7.005 c -0.066,-0.313 -0.324,-0.028 -0.568,0.63 -0.246,0.659 -0.188,0.916 0.127,0.569 0.31,-0.348 0.512,-0.889 0.441,-1.199 m 19.49,-0.689 c -0.07,-0.31 -0.326,-0.027 -0.568,0.633 -0.244,0.658 -0.186,0.917 0.127,0.567 0.311,-0.348 0.512,-0.887 0.441,-1.2 m -3.128,5.855 c -0.877,-0.168 -0.865,-0.377 0.021,-0.464 l 0.687,-0.066 c 0.887,-0.085 1.982,0.071 2.436,0.351 0.451,0.277 0.309,0.505 -0.316,0.505 -0.625,0 -1.852,-0.138 -2.729,-0.307 z m 28.643,-0.053 c -0.8,0.068 -0.8,-0.073 0,-0.316 0.797,-0.244 2.179,-0.381 3.065,-0.305 l 1.188,0.104 c 0.887,0.075 0.887,0.181 -0.004,0.231 l -1.182,0.066 c -0.888,0.053 -2.271,0.151 -3.067,0.22"
     fill="#595558"
     id="path59" />
  <path
     d="m 259.39298,22.937982 c -0.416,0.175 -1.037,0.989 -1.379,1.813 l -0.017,0.034 c -0.342,0.824 -0.183,0.917 0.354,0.206 l 0.816,-1.077 c 0.543,-0.712 0.644,-1.151 0.226,-0.976"
     fill="#282729"
     id="path61" />
  <path
     d="m 290.76598,9.1159808 c -0.383,0 -0.766,-0.727 -0.853,-1.614 l -0.065,-0.685 c -0.086,-0.89 0.146,-0.95 0.512,-0.138 l 0.436,0.959 c 0.365,0.813 0.353,1.478 -0.03,1.478 m -119.291,3.5959992 c -0.033,-0.451 0.668,-0.795 1.559,-0.765 l 0.542,0.017 c 0.892,0.031 0.946,0.333 0.124,0.674 l -0.665,0.272 c -0.823,0.342 -1.526,0.252 -1.56,-0.198 m -44.371,1.641001 c -0.35,-0.174 -0.541,0.407 -0.425,1.291 l 0.089,0.701 c 0.116,0.883999 0.372,0.896999 0.575,0.028 l 0.026,-0.123 c 0.203,-0.869 0.082,-1.722 -0.265,-1.897 M 87.399975,26.661978 c -0.104,-0.347 0.541,-0.63 1.433,-0.63 h 3.45 c 0.891,0 0.905,0.143 0.031,0.316 l -3.133,0.625 c -0.874,0.175 -1.678,0.036 -1.781,-0.311 m -70.465997,6.941 c 0.053,-0.26 -0.634,-0.475 -1.527,-0.475 h -0.828 c -0.894,0 -0.914,0.174 -0.048,0.386 l 0.733,0.179 c 0.865,0.213 1.616,0.17 1.67,-0.09"
     fill="#020303"
     id="path63" />
  <path
     d="m 4.382978,36.489978 c -0.892,0.011 -1.479,0.16 -1.303,0.333 0.175,0.175 1.047,0.316 1.938,0.316 h 6.606 c 0.889,0 1.762,-0.17 1.936,-0.379 0.174,-0.209 -0.416,-0.37 -1.307,-0.36 z m 29.921,0 c -0.894,0.011 -1.482,0.16 -1.306,0.333 0.173,0.175 1.043,0.316 1.934,0.316 h 6.605997 c 0.891,0 1.763,-0.17 1.938,-0.379 0.174,-0.209 -0.416,-0.37 -1.306,-0.36 z m 16.820997,-0.131 c -0.892,0.027 -1.573,0.195 -1.517,0.369 0.06,0.175 0.837,0.316 1.729,0.316 h 0.114 c 0.892,0 1.67,-0.171 1.731,-0.379 0.058,-0.21 -0.622,-0.355 -1.514,-0.327 z M 21.110978,21.683981 c -0.891,0.03 -1.572,0.197 -1.513,0.37 0.062,0.174 0.839,0.317 1.73,0.317 h 0.112 c 0.891,0 1.668,-0.171 1.73,-0.379 0.059,-0.21 -0.622,-0.356 -1.513,-0.327 z m 12.402,0 c -0.89,0.03 -1.57,0.197 -1.512,0.37 0.062,0.174 0.838,0.317 1.728,0.317 h 0.113 c 0.892,0 1.669,-0.171 1.729,-0.379 0.061,-0.21 -0.622,-0.356 -1.514,-0.327 z m -24.807,1.981997 c -0.89,0.032 -1.574,0.2 -1.521,0.376 0.051,0.173 0.777,0.314 1.607,0.314 0.83,0 1.553,-0.171 1.605,-0.378 0.054,-0.208 -0.631,-0.352 -1.521,-0.318 z m 14.867,5.048 c -0.893,0.017 -1.531,0.171 -1.422,0.346 0.112,0.175 0.932,0.314 1.822,0.314 h 2.964 c 0.893,0 1.712,-0.169 1.821,-0.376 0.111,-0.208 -0.529,-0.365 -1.42,-0.35 z m -6.817,-21.5839972 c -0.893,0.016 -1.531,0.171 -1.42,0.344 0.109,0.173 0.929,0.315 1.819,0.315 h 2.968 c 0.893,0 1.712,-0.17 1.821,-0.378 0.108,-0.209 -0.532,-0.367 -1.423,-0.352 z M 68.352975,36.358978 c -0.89,0.027 -1.572,0.195 -1.512,0.369 0.061,0.175 0.837,0.316 1.728,0.316 h 0.111 c 0.891,0 1.671,-0.171 1.731,-0.379 0.06,-0.21 -0.621,-0.355 -1.515,-0.327 z m 29.442,-0.005 c -0.892,0.031 -1.577,0.2 -1.522,0.375 0.053,0.175 0.777,0.317 1.607,0.317 0.833,0 1.554,-0.171 1.606,-0.381 0.054,-0.208 -0.635,-0.351 -1.521,-0.319 z m -23.95,0.027 c -0.891,0.021 -1.544,0.175 -1.447,0.349 0.095,0.175 0.903,0.314 1.794,0.314 h 2.216 c 0.892,0 1.699,-0.171 1.795,-0.378 0.095,-0.208 -0.556,-0.366 -1.448,-0.346 z m 15.621,0.002 c -0.893,0.018 -1.533,0.172 -1.426,0.347 0.108,0.175 0.925,0.315 1.816,0.315 h 2.793 c 0.893,0 1.709,-0.171 1.818,-0.379 0.106,-0.208 -0.536,-0.367 -1.427,-0.348 z m 17.232995,-0.01 c -0.891,0.022 -1.557,0.183 -1.481,0.356 0.079,0.175 0.872,0.314 1.763,0.314 h 1.207 c 0.891,0 1.685,-0.171 1.765,-0.379 0.079,-0.208 -0.586,-0.361 -1.479,-0.338 z m 34.17401,0 c -0.891,0.022 -1.557,0.183 -1.477,0.356 0.08,0.175 0.874,0.314 1.766,0.314 h 1.202 c 0.89,0 1.686,-0.171 1.766,-0.379 0.08,-0.208 -0.585,-0.361 -1.476,-0.338 z m 24.331,-0.006 c -0.891,0.024 -1.564,0.188 -1.494,0.361 0.071,0.175 0.855,0.316 1.75,0.316 h 0.7 c 0.892,0 1.679,-0.171 1.749,-0.379 0.072,-0.209 -0.6,-0.359 -1.492,-0.333 z m 12.122,0.025 c -0.892,0.013 -1.5,0.163 -1.351,0.337 0.15,0.175 1.002,0.314 1.893,0.314 h 5.295 c 0.891,0 1.743,-0.171 1.895,-0.379 0.152,-0.208 -0.455,-0.37 -1.348,-0.358 z m 14.957,-0.03 c -0.892,0.027 -1.569,0.193 -1.507,0.368 0.062,0.173 0.843,0.315 1.73,0.315 h 0.254 c 0.893,0 1.672,-0.171 1.733,-0.379 0.063,-0.209 -0.614,-0.356 -1.509,-0.329 z m 5.399,0.019 c -0.896,0.021 -1.543,0.175 -1.447,0.349 0.096,0.175 0.906,0.314 1.797,0.314 h 2.271 c 0.891,0 1.701,-0.171 1.799,-0.378 0.094,-0.208 -0.555,-0.366 -1.447,-0.346 z m 11.926,-0.006 c -0.893,0.021 -1.553,0.18 -1.471,0.354 0.084,0.175 0.881,0.316 1.773,0.316 h 1.426 c 0.891,0 1.689,-0.171 1.771,-0.379 0.082,-0.208 -0.579,-0.363 -1.471,-0.341 z m 7.102,-0.008 c -0.893,0.026 -1.566,0.189 -1.5,0.363 0.068,0.174 0.854,0.315 1.748,0.315 h 0.59 c 0.891,0 1.676,-0.171 1.741,-0.379 0.067,-0.209 -0.606,-0.358 -1.497,-0.332 z m 10.038,0.029 c -0.892,0.01 -1.472,0.159 -1.286,0.333 0.186,0.175 1.066,0.316 1.957,0.316 h 7.307 c 0.892,0 1.773,-0.171 1.959,-0.38 0.185,-0.208 -0.393,-0.371 -1.283,-0.361 z m 17.038,0 c -0.893,0.01 -1.471,0.159 -1.285,0.333 0.184,0.175 1.066,0.316 1.959,0.316 h 7.305 c 0.893,0 1.774,-0.171 1.961,-0.38 0.188,-0.208 -0.391,-0.371 -1.281,-0.361 z m 43.078,0 c -0.891,0.01 -1.469,0.159 -1.279,0.333 0.184,0.175 1.064,0.316 1.959,0.316 h 7.297 c 0.893,0 1.775,-0.171 1.961,-0.38 0.186,-0.208 -0.392,-0.371 -1.281,-0.361 z m -15.812,-28.7019972 c -0.891,0.018 -1.535,0.172 -1.431,0.347 0.104,0.174 0.921,0.314 1.812,0.314 h 2.687 c 0.892,0 1.708,-0.17 1.813,-0.379 0.104,-0.208 -0.541,-0.365 -1.432,-0.348 z m -13.446,0.005 c -0.889,0.015 -1.52,0.167 -1.401,0.342 0.122,0.174 0.949,0.314 1.843,0.314 h 3.521 c 0.895,0 1.72,-0.17 1.841,-0.378 0.118,-0.209 -0.513,-0.366 -1.405,-0.353 z m -6.818,-0.013 c -0.891,0.021 -1.553,0.182 -1.467,0.354 0.082,0.174 0.878,0.315 1.773,0.315 h 1.514 c 0.893,0 1.689,-0.17 1.775,-0.379 0.084,-0.209 -0.574,-0.361 -1.469,-0.34 z m 2.277,13.9290002 c -0.893,0.016 -1.532,0.171 -1.424,0.345 0.105,0.174 0.924,0.313 1.814,0.313 h 2.855 c 0.89,0 1.707,-0.169 1.816,-0.376 0.109,-0.209 -0.533,-0.365 -1.426,-0.35 z m -41.562,-14.8720002 c -0.893,0.021 -1.554,0.18 -1.469,0.354 0.083,0.172 0.88,0.314 1.773,0.314 h 1.512 c 0.893,0 1.689,-0.17 1.773,-0.378 0.082,-0.208 -0.578,-0.362 -1.471,-0.339 z m 9.654,0 c -0.893,0.021 -1.553,0.18 -1.469,0.354 0.082,0.172 0.883,0.314 1.773,0.314 h 1.518 c 0.891,0 1.688,-0.17 1.773,-0.378 0.08,-0.208 -0.578,-0.362 -1.473,-0.339 z m -6.182,6.1279992 c -0.721,0.032 -1.275,0.204 -1.232,0.378 0.042,0.175 0.6,0.318001 1.236,0.318001 0.636,0 1.193,-0.172001 1.232,-0.380001 0.04,-0.206 -0.517,-0.349 -1.236,-0.316 m 3.439,-1.987999 c -0.892,0.034 -1.577,0.205 -1.528,0.379 0.051,0.174 0.748,0.316999 1.549,0.316999 0.801,0 1.496,-0.170999 1.547,-0.379999 0.05,-0.21 -0.639,-0.353 -1.53,-0.317 z m -42.984,0.379 c -0.892,0.033 -1.58,0.203 -1.529,0.377999 0.049,0.174 0.746,0.317 1.548,0.317 0.802,0 1.498,-0.171 1.554,-0.379 0.053,-0.208999 -0.637,-0.352999 -1.525,-0.318999 z m 10.793,10.045 c -0.895,0.028 -1.574,0.193 -1.508,0.368 0.062,0.173 0.844,0.316 1.735,0.316 h 0.278 c 0.893,0 1.674,-0.169 1.734,-0.377 0.062,-0.21 -0.615,-0.357 -1.507,-0.331 z m -7.574,3.617997 c -0.891,0.021 -1.543,0.175 -1.446,0.348 0.097,0.175 0.903,0.315 1.798,0.315 h 2.211 c 0.891,0 1.7,-0.171 1.795,-0.379 0.096,-0.21 -0.555,-0.365 -1.445,-0.345 z m 107.17,0.757 c -0.891,0.021 -1.54,0.175 -1.443,0.35 0.096,0.173 0.907,0.314 1.797,0.314 h 2.209 c 0.893,0 1.701,-0.171 1.799,-0.38 0.096,-0.208 -0.555,-0.362 -1.443,-0.344 z m -178.26601,2.83 c -0.891,0.024 -1.563,0.188 -1.492,0.36 0.073,0.172 0.861,0.313 1.752,0.313 h 0.868 c 0.891,0 1.682,-0.17 1.755,-0.378 0.073,-0.208 -0.595,-0.357 -1.488,-0.334 z m -15.151995,-3.031 c -0.891,0.024 -1.561,0.188 -1.489,0.36 0.072,0.172 0.859,0.314 1.75,0.314 h 0.87 c 0.893,0 1.683,-0.17 1.756,-0.377 0.073,-0.209 -0.597,-0.359 -1.489,-0.335 z m -21.589,-0.285 c -0.892,0.024 -1.561,0.188 -1.488,0.361 0.075,0.174 0.865,0.316 1.756,0.316 h 0.868 c 0.891,0 1.681,-0.171 1.754,-0.381 0.074,-0.208 -0.597,-0.359 -1.489,-0.335 z M 38.154978,13.647981 c -0.891,0.017 -1.541,0.169 -1.443,0.343 0.1,0.175 0.909,0.319 1.802,0.323 l 2.377997,0.009 c 0.891,0.004 1.704,-0.165 1.802,-0.373 0.101,-0.209 -0.546,-0.367 -1.438,-0.353 z M 99.453975,8.1599808 c -0.886,-0.098 -1.574,-0.028 -1.525,0.154 0.048,0.184 0.811,0.431 1.694,0.55 l 0.862995,0.116 c 0.884,0.121 1.689,0.059 1.788,-0.137 0.099,-0.196 -0.543,-0.436 -1.431,-0.533 z M 192.37798,27.278978 c -0.893,0.023 -1.564,0.186 -1.49,0.359 0.072,0.173 0.863,0.314 1.752,0.314 h 0.869 c 0.891,0 1.68,-0.17 1.754,-0.378 0.07,-0.208 -0.598,-0.358 -1.492,-0.334 z m 27.265,-2.649 c -0.891,0.024 -1.561,0.186 -1.487,0.36 0.073,0.172 0.862,0.313 1.753,0.313 h 0.869 c 0.893,0 1.68,-0.171 1.753,-0.379 0.071,-0.21 -0.597,-0.357 -1.487,-0.334 z m -65.519,-17.2039972 c -0.891,0.009 -1.436,0.158 -1.207,0.333 0.229,0.173 1.143,0.315 2.034,0.315 h 9.601 c 0.891,0 1.805,-0.169 2.033,-0.38 0.225,-0.208 -0.318,-0.373 -1.211,-0.364 z m -32.469,0.097 c -0.89,0.008 -1.43,0.156 -1.194,0.329 0.235,0.175 1.158,0.315 2.048,0.315 h 10.012 c 0.891,0 1.812,-0.169 2.047,-0.379 0.235,-0.208 -0.305,-0.372 -1.196,-0.364 z m -1.702,13.8100002 c -0.892,0.013 -1.518,0.167 -1.391,0.341 0.126,0.175 0.96,0.318 1.852,0.318 h 3.976 c 0.89,0 1.724,-0.17 1.85,-0.378 0.126,-0.208 -0.5,-0.367 -1.391,-0.354 z m 8.706,-0.001 c -0.891,0.013 -1.523,0.168 -1.402,0.342 0.121,0.175 0.948,0.318 1.84,0.318 h 3.554 c 0.89,0 1.718,-0.169 1.839,-0.377 0.121,-0.21 -0.511,-0.369 -1.402,-0.354 z m 18.655,13.225997 c -0.892,0.03 -1.573,0.199 -1.516,0.371 0.057,0.173 0.833,0.316 1.725,0.316 h 0.027 c 0.891,0 1.668,-0.17 1.728,-0.379 0.061,-0.209 -0.621,-0.354 -1.513,-0.324 z m -2.563,-22.192998 c -0.886,-0.103 -1.562,-0.033 -1.5,0.148 0.062,0.188 0.834,0.437 1.717,0.559 l 1.629,0.227 c 0.884,0.12 1.699,0.062 1.813,-0.134 0.114,-0.196 -0.516,-0.438 -1.403,-0.541 z m 81.416,14.960998 c -0.887,-0.103 -1.561,-0.036 -1.496,0.146 0.057,0.185 0.836,0.435 1.719,0.558 l 1.623,0.225 c 0.885,0.121 1.699,0.063 1.813,-0.132 0.114,-0.194 -0.517,-0.437 -1.401,-0.538 z m -2.949,-14.454998 c -0.668,0.032 -1.185,0.204 -1.146,0.378 0.037,0.175 0.552,0.318001 1.143,0.318001 0.594,0 1.108,-0.172001 1.146,-0.380001 0.038,-0.206 -0.475,-0.349 -1.143,-0.316 m 38.462,8.746001 c -0.892,0.016 -1.524,0.168 -1.406,0.342 0.121,0.174 0.947,0.316 1.84,0.316 h 3.527 c 0.89,0 1.721,-0.171 1.838,-0.379 0.117,-0.208 -0.514,-0.364 -1.407,-0.352 z m 31.239,-13.9290002 c -0.891,0.02 -1.551,0.179 -1.464,0.353 0.087,0.174 0.888,0.314 1.778,0.314 h 1.621 c 0.895,0 1.695,-0.169 1.779,-0.379 0.088,-0.208 -0.57,-0.36 -1.463,-0.341 z m -140.115,28.7059972 c -0.891,0.012 -1.486,0.162 -1.324,0.336 0.166,0.174 1.029,0.314 1.92,0.314 h 6.074 c 0.891,0 1.754,-0.17 1.92,-0.378 0.164,-0.208 -0.432,-0.37 -1.322,-0.358 z m -39.763,0.004 c -0.89201,0.009 -1.44401,0.156 -1.22901,0.33 0.216,0.175 1.12001,0.316 2.01301,0.316 h 9.008 c 0.892,0 1.799,-0.171 2.015,-0.381 0.216,-0.208 -0.338,-0.372 -1.229,-0.363 z m 14.77,-0.012 c -0.89,0.017 -1.523,0.17 -1.405,0.344 0.119,0.174 0.945,0.314 1.836,0.314 h 3.469 c 0.891,0 1.716,-0.171 1.837,-0.379 0.116,-0.208 -0.517,-0.366 -1.408,-0.353 z m -70.277005,0.084 c -0.891,0.021 -1.556,0.181 -1.472,0.354 0.082,0.175 0.877,0.315 1.771,0.315 h 1.458 c 0.891,0 1.688,-0.17 1.77,-0.379 0.084,-0.209 -0.577,-0.36 -1.468,-0.34 z"
     fill="#e1dcd7"
     id="path65" />
  <g
     aria-label="Deile Server !!!"
     transform="matrix(1.0989205,-0.22519634,0.17205866,0.8747248,0,0)"
     id="text1032"
     style="font-size:4.34788px;line-height:1.25;fill:#ff0000;stroke-width:0.108697">
    <path
       d="m 128.85865,91.836163 q 0,3.67871 -2.28264,5.788109 -2.35396,2.190921 -6.6339,2.190921 -2.75139,0 -4.24937,-0.275139 l -0.27514,-7.571417 q -0.13247,-2.914435 -0.47895,-8.040172 2.21131,-0.3159 4.61623,-0.3159 4.29013,0 6.71542,1.997305 2.58835,2.13997 2.58835,6.226293 z m -4.17804,1.253411 q 0,-1.497979 -0.96808,-2.211302 -0.80504,-0.591039 -2.05845,-0.540088 l -0.14266,6.389339 q 1.30436,-0.08152 2.12978,-0.845798 1.03941,-0.947701 1.03941,-2.792151 z"
       style="font-size:20.8698px;font-family:'Showcard Gothic';-inkscape-font-specification:'Showcard Gothic, Normal'"
       id="path178" />
    <path
       d="m 140.34315,83.887704 -0.43818,6.45048 q -0.37704,-0.06114 -1.63045,-0.213997 -0.85599,-0.08152 -1.87503,-0.101903 l -0.15285,1.946353 q 1.12094,0.03057 3.65833,-0.05095 -0.11209,0.377042 -0.35666,1.406266 -0.14267,0.62161 -0.25476,1.436836 -0.29552,-0.07133 -1.4776,-0.183426 -0.55028,-0.03057 -1.63045,-0.02038 l -0.10191,2.272444 q 0.76428,-0.01019 2.81254,-0.132474 0.38723,-0.03057 1.27379,-0.244568 -0.0815,0.3159 -0.37704,1.518359 -0.14267,0.62161 -0.34648,1.569311 h -9.12034 l -0.29552,-7.98922 q -0.0815,-2.7412 -0.39743,-7.66313 z"
       style="font-size:20.8698px;font-family:'Showcard Gothic';-inkscape-font-specification:'Showcard Gothic, Normal'"
       id="path180" />
    <path
       d="m 148.29161,83.887704 -0.39742,8.325501 q -0.11209,2.690248 -0.26495,7.326849 h -5.71678 l -0.69294,-15.65235 z"
       style="font-size:20.8698px;font-family:'Showcard Gothic';-inkscape-font-specification:'Showcard Gothic, Normal'"
       id="path182" />
    <path
       d="m 159.70478,96.452384 q -0.1019,0.407613 -0.37704,1.53874 -0.14266,0.662371 -0.24457,1.54893 h -9.22225 q -0.051,-2.394728 -0.25476,-7.887317 -0.13247,-2.812532 -0.47894,-7.765033 h 7.07209 l -0.58085,12.982483 q 0.98846,0 2.96539,-0.213997 0.40761,-0.04076 1.12093,-0.203806 z"
       style="font-size:20.8698px;font-family:'Showcard Gothic';-inkscape-font-specification:'Showcard Gothic, Normal'"
       id="path184" />
    <path
       d="m 170.89377,83.887704 -0.43819,6.45048 q -0.37704,-0.06114 -1.63045,-0.213997 -0.85599,-0.08152 -1.87502,-0.101903 l -0.15285,1.946353 q 1.12093,0.03057 3.65832,-0.05095 -0.11209,0.377042 -0.35666,1.406266 -0.14266,0.62161 -0.25475,1.436836 -0.29552,-0.07133 -1.4776,-0.183426 -0.55028,-0.03057 -1.63046,-0.02038 l -0.1019,2.272444 q 0.76428,-0.01019 2.81253,-0.132474 0.38723,-0.03057 1.27379,-0.244568 -0.0815,0.3159 -0.37704,1.518359 -0.14266,0.62161 -0.34647,1.569311 h -9.12035 l -0.29552,-7.98922 q -0.0815,-2.7412 -0.39742,-7.66313 z"
       style="font-size:20.8698px;font-family:'Showcard Gothic';-inkscape-font-specification:'Showcard Gothic, Normal'"
       id="path186" />
    <path
       d="m 185.64937,90.297423 q -0.75409,-0.173236 -1.14132,-0.173236 -0.47894,0 -0.87637,0.326091 -0.47894,0.397423 -0.47894,1.029223 0,0.489136 0.87637,1.885212 0.87636,1.396075 0.87636,2.567964 0,1.701785 -1.29417,2.792151 -1.23303,1.049604 -3.04691,1.049604 -1.67121,0 -2.46606,-0.234378 -0.0917,-0.468755 -0.3159,-1.52855 -0.14266,-0.570658 -0.39742,-1.518359 1.12094,0.275139 1.50817,0.275139 1.51836,0 1.51836,-1.151508 0,-0.835607 -0.61142,-1.497978 -0.99865,-0.876369 -1.99731,-1.762928 -1.93616,-1.711976 -1.93616,-4.065943 0,-2.45587 1.83426,-3.719471 1.59988,-1.100556 4.25956,-1.100556 1.50817,0 3.38319,0.438185 z"
       style="font-size:20.8698px;font-family:'Showcard Gothic';-inkscape-font-specification:'Showcard Gothic, Normal'"
       id="path188" />
    <path
       d="m 197.15426,83.887704 -0.43819,6.45048 q -0.37704,-0.06114 -1.63045,-0.213997 -0.85599,-0.08152 -1.87502,-0.101903 l -0.15286,1.946353 q 1.12094,0.03057 3.65833,-0.05095 -0.11209,0.377042 -0.35666,1.406266 -0.14266,0.62161 -0.25476,1.436836 -0.29552,-0.07133 -1.4776,-0.183426 -0.55027,-0.03057 -1.63045,-0.02038 l -0.1019,2.272444 q 0.76427,-0.01019 2.81253,-0.132474 0.38723,-0.03057 1.27379,-0.244568 -0.0815,0.3159 -0.37704,1.518359 -0.14267,0.62161 -0.34647,1.569311 h -9.12035 l -0.29552,-7.98922 q -0.0815,-2.7412 -0.39742,-7.66313 z"
       style="font-size:20.8698px;font-family:'Showcard Gothic';-inkscape-font-specification:'Showcard Gothic, Normal'"
       id="path190" />
    <path
       d="m 211.71624,89.747145 q 0,1.875021 -1.0496,3.322048 -0.92732,1.263602 -2.3234,1.813879 0.29552,0.458565 1.45722,1.925973 0.58085,0.672562 1.77312,1.773118 -0.47895,0.173236 -2.1094,0.876369 -1.14132,0.519707 -2.15016,1.019028 -0.29552,-0.36685 -1.31455,-1.895397 -0.46876,-0.774465 -1.3757,-2.608725 h -0.0204 l -0.1019,3.566616 h -5.73716 q -0.11209,-2.221492 -0.3159,-7.326849 -0.0917,-3.006148 -0.4178,-8.325501 2.80234,-0.29552 5.11554,-0.29552 8.57007,0 8.57007,6.154961 z m -4.62641,2.201112 q 0,-0.968082 -0.81522,-1.385885 -0.60123,-0.30571 -1.50817,-0.264949 l -0.0611,3.485094 q 0.8458,0 1.50817,-0.377043 0.87637,-0.489136 0.87637,-1.457217 z"
       style="font-size:20.8698px;font-family:'Showcard Gothic';-inkscape-font-specification:'Showcard Gothic, Normal'"
       id="path192" />
    <path
       d="m 225.43242,83.887704 q -0.84579,2.506822 -2.71062,8.182837 -0.85599,2.669867 -2.21131,7.469513 h -3.54623 q -0.68275,-2.323395 -2.28264,-7.591797 -0.90694,-2.914435 -2.69024,-8.060553 h 7.20456 q 0.1019,0.968081 0.47895,3.148813 0.25476,1.161697 0.79484,3.199764 0.28533,-0.988462 0.83561,-3.220145 0.25476,-1.202459 0.58085,-3.128432 z"
       style="font-size:20.8698px;font-family:'Showcard Gothic';-inkscape-font-specification:'Showcard Gothic, Normal'"
       id="path194" />
    <path
       d="m 236.66218,83.887704 -0.43819,6.45048 q -0.37704,-0.06114 -1.63045,-0.213997 -0.85599,-0.08152 -1.87502,-0.101903 l -0.15286,1.946353 q 1.12094,0.03057 3.65833,-0.05095 -0.11209,0.377042 -0.35666,1.406266 -0.14267,0.62161 -0.25476,1.436836 -0.29552,-0.07133 -1.4776,-0.183426 -0.55028,-0.03057 -1.63045,-0.02038 l -0.1019,2.272444 q 0.76427,-0.01019 2.81253,-0.132474 0.38723,-0.03057 1.27379,-0.244568 -0.0815,0.3159 -0.37704,1.518359 -0.14267,0.62161 -0.34647,1.569311 h -9.12035 l -0.29552,-7.98922 q -0.0815,-2.7412 -0.39742,-7.66313 z"
       style="font-size:20.8698px;font-family:'Showcard Gothic';-inkscape-font-specification:'Showcard Gothic, Normal'"
       id="path196" />
    <path
       d="m 251.22416,89.747145 q 0,1.875021 -1.04961,3.322048 -0.92732,1.263602 -2.32339,1.813879 0.29551,0.458565 1.45721,1.925973 0.58085,0.672562 1.77312,1.773118 -0.47895,0.173236 -2.1094,0.876369 -1.14132,0.519707 -2.15016,1.019028 -0.29552,-0.36685 -1.31455,-1.895397 -0.46876,-0.774465 -1.3757,-2.608725 h -0.0204 l -0.1019,3.566616 h -5.73716 q -0.11209,-2.221492 -0.3159,-7.326849 -0.0917,-3.006148 -0.4178,-8.325501 2.80234,-0.29552 5.11555,-0.29552 8.57007,0 8.57007,6.154961 z m -4.62642,2.201112 q 0,-0.968082 -0.81522,-1.385885 -0.60123,-0.30571 -1.50817,-0.264949 l -0.0611,3.485094 q 0.84579,0 1.50817,-0.377043 0.87636,-0.489136 0.87636,-1.457217 z"
       style="font-size:20.8698px;font-family:'Showcard Gothic';-inkscape-font-specification:'Showcard Gothic, Normal'"
       id="path198" />
    <path
       d="m 263.27932,83.887704 q -0.57066,2.415109 -1.17189,5.51297 -0.29551,1.406266 -0.59103,2.822722 -0.3261,1.579501 -0.3261,2.15016 0,0.163045 0.0204,0.264948 -0.051,0.01019 -1.09037,0.122284 -0.58085,0.07133 -1.24322,0.183426 -0.24457,-1.661024 -0.85599,-5.441637 -0.35666,-1.722166 -1.09036,-5.614873 z m -1.13112,14.083039 q 0,0.794846 -0.68276,1.345124 -0.67256,0.540088 -1.56931,0.540088 -0.95789,0 -1.65083,-0.540088 -0.68275,-0.550278 -0.68275,-1.365505 0,-0.825416 0.66237,-1.345123 0.67256,-0.529898 1.67121,-0.529898 0.90694,0 1.56931,0.519707 0.68276,0.550278 0.68276,1.375695 z"
       style="font-size:20.8698px;font-family:'Showcard Gothic';-inkscape-font-specification:'Showcard Gothic, Normal'"
       id="path200" />
    <path
       d="m 272.33853,83.887704 q -0.57066,2.415109 -1.17189,5.51297 -0.29552,1.406266 -0.59104,2.822722 -0.32609,1.579501 -0.32609,2.15016 0,0.163045 0.0204,0.264948 -0.051,0.01019 -1.09037,0.122284 -0.58084,0.07133 -1.24322,0.183426 -0.24456,-1.661024 -0.85598,-5.441637 -0.35667,-1.722166 -1.09037,-5.614873 z m -1.13113,14.083039 q 0,0.794846 -0.68275,1.345124 -0.67256,0.540088 -1.56931,0.540088 -0.95789,0 -1.65084,-0.540088 -0.68275,-0.550278 -0.68275,-1.365505 0,-0.825416 0.66237,-1.345123 0.67256,-0.529898 1.67122,-0.529898 0.90694,0 1.56931,0.519707 0.68275,0.550278 0.68275,1.375695 z"
       style="font-size:20.8698px;font-family:'Showcard Gothic';-inkscape-font-specification:'Showcard Gothic, Normal'"
       id="path202" />
    <path
       d="m 281.39773,83.887704 q -0.57066,2.415109 -1.17189,5.51297 -0.29552,1.406266 -0.59104,2.822722 -0.32609,1.579501 -0.32609,2.15016 0,0.163045 0.0204,0.264948 -0.051,0.01019 -1.09036,0.122284 -0.58085,0.07133 -1.24322,0.183426 -0.24457,-1.661024 -0.85599,-5.441637 -0.35666,-1.722166 -1.09037,-5.614873 z m -1.13113,14.083039 q 0,0.794846 -0.68275,1.345124 -0.67256,0.540088 -1.56931,0.540088 -0.95789,0 -1.65083,-0.540088 -0.68276,-0.550278 -0.68276,-1.365505 0,-0.825416 0.66238,-1.345123 0.67256,-0.529898 1.67121,-0.529898 0.90694,0 1.56931,0.519707 0.68275,0.550278 0.68275,1.375695 z"
       style="font-size:20.8698px;font-family:'Showcard Gothic';-inkscape-font-specification:'Showcard Gothic, Normal'"
       id="path204" />
  </g>
</svg>
